<?xml version="1.0" encoding="UTF-8" standalone="no"?>
<!DOCTYPE svg PUBLIC "-//W3C//DTD SVG 1.1//EN"
 "http://www.w3.org/Graphics/SVG/1.1/DTD/svg11.dtd">
<!-- Generated by graphviz version 2.43.0 (0)
 -->
<!-- Title: %3 Pages: 1 -->
<svg width="134pt" height="180pt"
 viewBox="0.00 0.00 134.00 180.02" xmlns="http://www.w3.org/2000/svg" xmlns:xlink="http://www.w3.org/1999/xlink">
<g id="graph0" class="graph" transform="scale(1 1) rotate(0) translate(4 176.02)">
<title>%3</title>
<polygon fill="white" stroke="transparent" points="-4,4 -4,-176.02 130,-176.02 130,4 -4,4"/>
<!-- &#45;1 -->
<g id="node1" class="node">
<title>&#45;1</title>
<polygon fill="lightgray" stroke="black" points="26,-172.02 0,-172.02 0,-154.02 26,-154.02 26,-172.02"/>
<text text-anchor="middle" x="13" y="-160.82" font-family="Times,serif" font-size="9.00">&#45;1</text>
</g>
<!-- &#45;2 -->
<g id="node2" class="node">
<title>&#45;2</title>
<polygon fill="lightgray" stroke="black" points="70,-172.02 44,-172.02 44,-154.02 70,-154.02 70,-172.02"/>
<text text-anchor="middle" x="57" y="-160.82" font-family="Times,serif" font-size="9.00">&#45;2</text>
</g>
<!-- 381 -->
<g id="node6" class="node">
<title>381</title>
<ellipse fill="white" stroke="black" cx="57" cy="-93.28" rx="25" ry="25"/>
<text text-anchor="middle" x="57" y="-91.08" font-family="Times,serif" font-size="9.00">381</text>
</g>
<!-- &#45;2&#45;&gt;381 -->
<g id="edge2" class="edge">
<title>&#45;2&#45;&gt;381</title>
<path fill="none" stroke="green" stroke-width="0.23" d="M57,-153.99C57,-147.55 57,-138.05 57,-128.52"/>
<polygon fill="green" stroke="green" stroke-width="0.23" points="60.5,-128.3 57,-118.3 53.5,-128.3 60.5,-128.3"/>
</g>
<!-- &#45;3 -->
<g id="node3" class="node">
<title>&#45;3</title>
<polygon fill="lightgray" stroke="black" points="114,-172.02 88,-172.02 88,-154.02 114,-154.02 114,-172.02"/>
<text text-anchor="middle" x="101" y="-160.82" font-family="Times,serif" font-size="9.00">&#45;3</text>
</g>
<!-- &#45;4 -->
<g id="node4" class="node">
<title>&#45;4</title>
<polygon fill="lightgray" stroke="black" points="126,-102.28 100,-102.28 100,-84.28 126,-84.28 126,-102.28"/>
<text text-anchor="middle" x="113" y="-91.08" font-family="Times,serif" font-size="9.00">&#45;4</text>
</g>
<!-- 0 -->
<g id="node5" class="node">
<title>0</title>
<ellipse fill="lightblue" stroke="black" cx="85" cy="-16.26" rx="16.03" ry="16.03"/>
<text text-anchor="middle" x="85" y="-14.06" font-family="Times,serif" font-size="9.00">0</text>
</g>
<!-- &#45;4&#45;&gt;0 -->
<g id="edge1" class="edge">
<title>&#45;4&#45;&gt;0</title>
<path fill="none" stroke="green" stroke-width="0.36" d="M110,-84.25C106.2,-74.05 99.46,-56.01 93.94,-41.21"/>
<polygon fill="green" stroke="green" stroke-width="0.36" points="97.14,-39.77 90.36,-31.63 90.58,-42.22 97.14,-39.77"/>
</g>
<!-- 381&#45;&gt;0 -->
<g id="edge3" class="edge">
<title>381&#45;&gt;0</title>
<path fill="none" stroke="red" stroke-width="0.3" d="M65.4,-69.77C68.72,-60.86 72.55,-50.61 75.94,-41.54"/>
<polygon fill="red" stroke="red" stroke-width="0.3" points="79.31,-42.53 79.52,-31.94 72.75,-40.08 79.31,-42.53"/>
</g>
</g>
</svg>
